<?xml version="1.0" encoding="utf-8"?>
<svg viewBox="172.648 180.972 150 150" xmlns="http://www.w3.org/2000/svg">
  <rect x="172.648" y="180.972" width="150" height="150" style="stroke: rgb(0, 0, 0); fill: rgb(240, 246, 255); paint-order: fill; stroke-width: 0px;"/>
  <path d="M 227.45499267578126 309.9729919433594 Q 217.40499267578124 309.9729919433594 208.77999267578124 307.42299194335936 Q 200.15499267578124 304.87299194335935 194.82999267578126 299.62299194335935 Q 189.50499267578124 294.37299194335935 189.50499267578124 286.42299194335936 Q 189.50499267578124 280.2729919433594 193.40499267578124 274.12299194335935 Q 207.20499267578126 252.22299194335938 240.50499267578124 241.57299194335937 Q 235.55499267578125 235.87299194335938 235.55499267578125 228.67299194335936 Q 235.55499267578125 222.8229919433594 238.70499267578126 218.62299194335938 Q 244.85499267578126 210.22299194335938 257.30499267578125 204.67299194335936 Q 264.35499267578126 201.67299194335936 271.62999267578124 200.0229919433594 Q 278.9049926757813 198.37299194335938 286.4049926757813 198.37299194335938 Q 295.7049926757812 198.37299194335938 300.5799926757812 201.37299194335938 Q 305.4549926757812 204.37299194335938 305.4549926757812 209.7729919433594 Q 305.4549926757812 213.5229919433594 303.42999267578125 216.59799194335938 Q 301.4049926757813 219.67299194335936 298.4049926757813 221.54799194335936 Q 295.4049926757813 223.42299194335936 292.25499267578124 223.42299194335936 Q 287.60499267578126 223.42299194335936 287.60499267578126 221.17299194335936 Q 287.60499267578126 219.8229919433594 289.55499267578125 219.8229919433594 Q 290.1549926757813 219.8229919433594 291.12999267578124 220.04799194335936 Q 292.10499267578126 220.2729919433594 292.55499267578125 220.2729919433594 Q 295.7049926757812 220.2729919433594 298.10499267578126 216.97299194335938 Q 300.50499267578124 213.67299194335936 300.50499267578124 210.37299194335938 Q 300.50499267578124 205.5729919433594 295.92999267578125 203.47299194335938 Q 291.35499267578126 201.37299194335938 285.6549926757813 201.37299194335938 Q 271.4049926757813 201.37299194335938 257.75499267578124 210.5229919433594 Q 243.35499267578126 219.97299194335938 243.35499267578126 231.8229919433594 Q 243.35499267578126 236.17299194335936 246.35499267578126 239.92299194335936 Q 251.60499267578126 238.2729919433594 256.17999267578125 237.59799194335938 Q 260.75499267578124 236.92299194335936 264.9549926757812 236.92299194335936 Q 279.35499267578126 236.92299194335936 279.35499267578126 242.47299194335938 Q 279.35499267578126 245.0229919433594 277.25499267578124 246.8979919433594 Q 275.1549926757813 248.7729919433594 271.92999267578125 249.74799194335938 Q 268.7049926757812 250.72299194335938 265.4049926757813 250.72299194335938 Q 261.9549926757812 250.72299194335938 257.75499267578124 249.82299194335937 Q 253.55499267578125 248.92299194335936 249.65499267578124 247.42299194335936 Q 245.75499267578124 245.92299194335936 243.05499267578125 243.97299194335938 Q 228.95499267578126 248.0229919433594 218.07999267578126 256.49799194335935 Q 207.20499267578126 264.9729919433594 201.95499267578126 275.4729919433594 Q 199.10499267578126 281.17299194335936 199.10499267578126 286.5729919433594 Q 199.10499267578126 293.17299194335936 202.85499267578126 297.37299194335935 Q 206.60499267578126 301.5729919433594 212.82999267578126 303.5229919433594 Q 219.05499267578125 305.4729919433594 226.55499267578125 305.4729919433594 Q 239.00499267578124 305.4729919433594 251.30499267578125 301.49799194335935 Q 263.60499267578126 297.5229919433594 272.30499267578125 289.7229919433594 Q 284.1549926757813 279.2229919433594 284.1549926757813 267.67299194335936 Q 284.1549926757813 258.5229919433594 275.30499267578125 258.5229919433594 Q 270.6549926757813 258.5229919433594 264.9549926757812 260.8479919433594 Q 259.25499267578124 263.17299194335936 254.22999267578126 267.0729919433594 Q 249.20499267578126 270.9729919433594 245.90499267578124 275.62299194335935 Q 242.60499267578126 280.2729919433594 242.60499267578126 285.0729919433594 Q 242.60499267578126 289.87299194335935 246.80499267578125 290.92299194335936 Q 248.30499267578125 291.5229919433594 248.30499267578125 292.42299194335936 Q 248.30499267578125 293.62299194335935 246.05499267578125 293.62299194335935 Q 238.10499267578126 293.62299194335935 238.10499267578126 284.7729919433594 Q 238.10499267578126 278.92299194335936 241.55499267578125 273.67299194335936 Q 245.00499267578124 268.42299194335936 250.47999267578126 264.37299194335935 Q 255.95499267578123 260.3229919433594 262.4049926757813 257.99799194335935 Q 268.85499267578126 255.67299194335936 274.85499267578126 255.67299194335936 Q 281.9049926757813 255.67299194335936 285.80499267578125 258.74799194335935 Q 289.7049926757812 261.8229919433594 289.7049926757812 268.7229919433594 Q 289.7049926757812 282.67299194335936 274.25499267578124 294.9729919433594 Q 264.50499267578124 302.92299194335936 252.65499267578124 306.4479919433594 Q 240.80499267578125 309.9729919433594 227.45499267578126 309.9729919433594 Z M 264.05499267578125 247.42299194335936 Q 272.1549926757813 247.42299194335936 272.1549926757813 242.7729919433594 Q 272.1549926757813 240.67299194335936 264.05499267578125 240.67299194335936 Q 260.4549926757812 240.67299194335936 256.62999267578124 241.12299194335938 Q 252.80499267578125 241.57299194335937 248.90499267578124 242.32299194335937 Q 255.35499267578126 247.42299194335936 264.05499267578125 247.42299194335936 Z" transform="matrix(1, 0, 0, 1, 0, 0)" style="fill: rgb(55, 131, 189); white-space: pre;"/>
</svg>